<?xml version="1.0" encoding="utf-8"?>
<!-- Generator: Adobe Illustrator 21.0.0, SVG Export Plug-In . SVG Version: 6.00 Build 0)  -->
<svg version="1.1" id="Слой_1" xmlns="http://www.w3.org/2000/svg" xmlns:xlink="http://www.w3.org/1999/xlink" x="0px" y="0px"
	 viewBox="0 0 189.8 5.4" style="enable-background:new 0 0 189.8 5.4;" xml:space="preserve">
<title>volna4</title>
<path style="fill:#009FE3;" d="M182.1,5c-1.6,0-3.2-0.4-4.6-1.1c-1-0.6-2.2-0.9-3.3-0.8c-1.1,0-2.2,0.3-3.2,0.8
	c-1.4,0.8-3,1.2-4.7,1.2c-1.6,0-3.2-0.4-4.6-1.1c-1-0.6-2.2-0.9-3.3-0.8c-1.1,0-2.2,0.3-3.2,0.8c-1.4,0.8-3,1.2-4.7,1.2
	c-1.6,0-3.2-0.4-4.6-1.1c-2.1-1.1-4.6-1.1-6.6,0c-1.4,0.8-3,1.2-4.6,1.2s-3.2-0.4-4.6-1.2c-1-0.6-2.2-0.9-3.3-0.8
	c-1.1,0-2.2,0.3-3.2,0.8c-1.4,0.8-3,1.2-4.7,1.2c-1.6,0-3.2-0.4-4.6-1.1c-1-0.6-2.2-0.9-3.3-0.8c-1.1,0-2.2,0.3-3.2,0.8
	c-1.4,0.8-3,1.2-4.7,1.2c-1.6,0-3.2-0.4-4.6-1.1C97.3,3.3,96.2,3,95,3c-1.1,0-2.2,0.3-3.2,0.8C90.3,4.6,88.7,5,87.1,5
	s-3.2-0.4-4.6-1.1c-1-0.6-2.2-0.9-3.3-0.8c-1.1,0-2.2,0.3-3.2,0.8c-1.4,0.8-3,1.2-4.7,1.2c-1.6,0-3.2-0.4-4.6-1.1
	c-1-0.6-2.2-0.9-3.3-0.8c-1.1,0-2.2,0.3-3.2,0.8c-1.4,0.8-3,1.2-4.7,1.2c-1.6,0-3.2-0.4-4.6-1.1c-1-0.6-2.2-0.9-3.3-0.8
	c-1.1,0-2.2,0.3-3.2,0.8C42.8,4.6,41.2,5,39.6,5C38,5,36.4,4.6,35,3.9C34,3.3,32.8,3,31.7,3c-1.1,0-2.2,0.3-3.2,0.8
	C27,4.6,25.4,5,23.8,5s-3.2-0.4-4.6-1.1C18.2,3.3,17,3,15.8,3c-1.1,0-2.2,0.3-3.2,0.8C11.2,4.6,9.6,5,7.9,5C6.3,5,4.7,4.6,3.3,3.9
	C2.3,3.3,1.2,3,0,3V0c1.6,0,3.3,0.4,4.7,1.2C5.7,1.7,6.8,2,7.9,2c1.2,0,2.3-0.3,3.3-0.9c1.4-0.8,3-1.2,4.6-1.1
	c1.6,0,3.3,0.4,4.7,1.2c1,0.6,2.1,0.9,3.2,0.8C24.9,2,26,1.7,27,1.1c1.4-0.8,3-1.2,4.6-1.1c1.6,0,3.3,0.4,4.7,1.2
	c1,0.6,2.1,0.9,3.2,0.8c1.2,0,2.3-0.3,3.3-0.9c1.4-0.8,3-1.2,4.6-1.1c1.6,0,3.3,0.4,4.7,1.2c1,0.6,2.1,0.9,3.2,0.8
	c1.2,0,2.3-0.3,3.3-0.9c1.4-0.8,3-1.2,4.6-1.1C65,0,66.6,0.4,68,1.2C69,1.7,70.1,2,71.2,2c1.2,0,2.3-0.3,3.3-0.9
	C76,0.4,77.6,0,79.2,0s3.3,0.4,4.7,1.2c1,0.6,2.1,0.9,3.2,0.8c1.2,0,2.3-0.3,3.3-0.9C91.8,0.4,93.4,0,95,0s3.3,0.4,4.7,1.2
	c1,0.6,2.1,0.9,3.2,0.8c1.2,0,2.3-0.3,3.3-0.9c1.4-0.8,3-1.2,4.6-1.1c1.6,0,3.3,0.4,4.7,1.2c1,0.6,2.1,0.9,3.2,0.8
	c1.2,0,2.3-0.3,3.3-0.9c1.4-0.8,3-1.2,4.6-1.1c1.6,0,3.3,0.4,4.7,1.2c1,0.6,2.1,0.9,3.2,0.8c1.2,0,2.3-0.3,3.3-0.8
	c2.9-1.6,6.4-1.6,9.3,0c1,0.6,2.1,0.9,3.2,0.8c1.2,0,2.3-0.3,3.3-0.9c1.4-0.8,3-1.2,4.6-1.1c1.6,0,3.2,0.4,4.7,1.2
	c1,0.6,2.1,0.9,3.2,0.8c1.2,0,2.3-0.3,3.3-0.9c1.4-0.8,3-1.2,4.6-1.1c1.6,0,3.3,0.4,4.7,1.2c1,0.6,2.1,0.9,3.2,0.8
	c1.2,0,2.3-0.3,3.3-0.9c1.4-0.8,3-1.2,4.6-1.1v3c-1.1,0-2.2,0.3-3.2,0.8C185.3,4.6,183.7,5,182.1,5z"/>
</svg>
